<mxfile host="app.diagrams.net" agent="Mozilla/5.0 (Windows NT 10.0; Win64; x64) AppleWebKit/537.36 (KHTML, like Gecko) Chrome/131.0.0.0 Safari/537.36" version="24.7.17">
  <diagram name="Страница — 1" id="vG4tJJhcmZEq0gYRw8GC">
    <mxGraphModel dx="1802" dy="853" grid="1" gridSize="10" guides="1" tooltips="1" connect="1" arrows="1" fold="1" page="1" pageScale="1" pageWidth="827" pageHeight="1169" math="0" shadow="0">
      <root>
        <mxCell id="0" />
        <mxCell id="1" parent="0" />
        <mxCell id="Ys_HVUx-mVdK4su9oQWS-1" value="Kalender" style="swimlane;whiteSpace=wrap;html=1;" vertex="1" parent="1">
          <mxGeometry x="600" y="120" width="200" height="200" as="geometry" />
        </mxCell>
        <mxCell id="Ys_HVUx-mVdK4su9oQWS-3" value="&lt;span style=&quot;font-size: 36px;&quot;&gt;Logo&lt;/span&gt;" style="rounded=0;whiteSpace=wrap;html=1;" vertex="1" parent="1">
          <mxGeometry x="30" y="10" width="770" height="70" as="geometry" />
        </mxCell>
        <mxCell id="Ys_HVUx-mVdK4su9oQWS-5" value="Horizontal Container" style="swimlane;horizontal=0;whiteSpace=wrap;html=1;" vertex="1" parent="1">
          <mxGeometry x="40" y="390" width="760" height="280" as="geometry" />
        </mxCell>
        <mxCell id="Ys_HVUx-mVdK4su9oQWS-8" value="Grundfeuchigkeit" style="text;html=1;align=center;verticalAlign=middle;whiteSpace=wrap;rounded=0;" vertex="1" parent="Ys_HVUx-mVdK4su9oQWS-5">
          <mxGeometry x="40" y="230" width="70" height="30" as="geometry" />
        </mxCell>
        <mxCell id="Ys_HVUx-mVdK4su9oQWS-9" value="Luftfeuchigkeit" style="text;html=1;align=center;verticalAlign=middle;whiteSpace=wrap;rounded=0;" vertex="1" parent="Ys_HVUx-mVdK4su9oQWS-5">
          <mxGeometry x="40" y="210" width="60" height="30" as="geometry" />
        </mxCell>
        <mxCell id="Ys_HVUx-mVdK4su9oQWS-10" value="" style="endArrow=none;html=1;rounded=0;" edge="1" parent="Ys_HVUx-mVdK4su9oQWS-5">
          <mxGeometry width="50" height="50" relative="1" as="geometry">
            <mxPoint x="100" y="280" as="sourcePoint" />
            <mxPoint x="380" y="120" as="targetPoint" />
          </mxGeometry>
        </mxCell>
        <mxCell id="Ys_HVUx-mVdK4su9oQWS-11" value="" style="endArrow=none;html=1;rounded=0;" edge="1" parent="Ys_HVUx-mVdK4su9oQWS-5">
          <mxGeometry width="50" height="50" relative="1" as="geometry">
            <mxPoint x="380" y="120" as="sourcePoint" />
            <mxPoint x="470" y="210" as="targetPoint" />
            <Array as="points">
              <mxPoint x="430" y="90" />
            </Array>
          </mxGeometry>
        </mxCell>
        <mxCell id="Ys_HVUx-mVdK4su9oQWS-12" value="" style="endArrow=none;html=1;rounded=0;" edge="1" parent="Ys_HVUx-mVdK4su9oQWS-5">
          <mxGeometry width="50" height="50" relative="1" as="geometry">
            <mxPoint x="470" y="210" as="sourcePoint" />
            <mxPoint x="560" y="160" as="targetPoint" />
            <Array as="points">
              <mxPoint x="520" y="80" />
            </Array>
          </mxGeometry>
        </mxCell>
        <mxCell id="Ys_HVUx-mVdK4su9oQWS-13" value="" style="endArrow=none;html=1;rounded=0;entryX=1;entryY=0;entryDx=0;entryDy=0;" edge="1" parent="Ys_HVUx-mVdK4su9oQWS-5" target="Ys_HVUx-mVdK4su9oQWS-5">
          <mxGeometry width="50" height="50" relative="1" as="geometry">
            <mxPoint x="560" y="160" as="sourcePoint" />
            <mxPoint x="710" y="110" as="targetPoint" />
            <Array as="points">
              <mxPoint x="610" y="30" />
              <mxPoint x="650" y="110" />
            </Array>
          </mxGeometry>
        </mxCell>
        <mxCell id="Ys_HVUx-mVdK4su9oQWS-7" value="Temperatur" style="text;html=1;align=center;verticalAlign=middle;whiteSpace=wrap;rounded=0;" vertex="1" parent="1">
          <mxGeometry x="70" y="640" width="60" height="30" as="geometry" />
        </mxCell>
        <mxCell id="Ys_HVUx-mVdK4su9oQWS-14" value="Button (wurde genossen)" style="rounded=1;whiteSpace=wrap;html=1;" vertex="1" parent="1">
          <mxGeometry x="110" y="260" width="120" height="60" as="geometry" />
        </mxCell>
        <mxCell id="Ys_HVUx-mVdK4su9oQWS-15" value="Update" style="swimlane;whiteSpace=wrap;html=1;startSize=23;" vertex="1" parent="1">
          <mxGeometry x="360" y="120" width="200" height="200" as="geometry" />
        </mxCell>
        <mxCell id="Ys_HVUx-mVdK4su9oQWS-16" value="Temperatur" style="rounded=0;whiteSpace=wrap;html=1;" vertex="1" parent="Ys_HVUx-mVdK4su9oQWS-15">
          <mxGeometry x="14" y="50" width="80" height="20" as="geometry" />
        </mxCell>
        <mxCell id="Ys_HVUx-mVdK4su9oQWS-17" value="Luftfeuchigkeit" style="rounded=0;whiteSpace=wrap;html=1;" vertex="1" parent="Ys_HVUx-mVdK4su9oQWS-15">
          <mxGeometry x="14" y="90" width="80" height="20" as="geometry" />
        </mxCell>
        <mxCell id="Ys_HVUx-mVdK4su9oQWS-18" value="Grund..." style="rounded=0;whiteSpace=wrap;html=1;" vertex="1" parent="Ys_HVUx-mVdK4su9oQWS-15">
          <mxGeometry x="14" y="130" width="80" height="20" as="geometry" />
        </mxCell>
        <mxCell id="Ys_HVUx-mVdK4su9oQWS-19" value="Zahl" style="text;html=1;align=center;verticalAlign=middle;whiteSpace=wrap;rounded=0;" vertex="1" parent="Ys_HVUx-mVdK4su9oQWS-15">
          <mxGeometry x="110" y="45" width="60" height="30" as="geometry" />
        </mxCell>
        <mxCell id="Ys_HVUx-mVdK4su9oQWS-20" value="Zahl" style="text;html=1;align=center;verticalAlign=middle;whiteSpace=wrap;rounded=0;" vertex="1" parent="Ys_HVUx-mVdK4su9oQWS-15">
          <mxGeometry x="110" y="85" width="60" height="30" as="geometry" />
        </mxCell>
        <mxCell id="Ys_HVUx-mVdK4su9oQWS-21" value="Zahl" style="text;html=1;align=center;verticalAlign=middle;whiteSpace=wrap;rounded=0;" vertex="1" parent="Ys_HVUx-mVdK4su9oQWS-15">
          <mxGeometry x="110" y="125" width="60" height="30" as="geometry" />
        </mxCell>
        <mxCell id="Ys_HVUx-mVdK4su9oQWS-22" value="&lt;b&gt;&lt;u&gt;&lt;font face=&quot;Comic Sans MS&quot;&gt;!!! Erinnerung/Warnung: ....&lt;/font&gt;&lt;/u&gt;&lt;/b&gt;" style="rounded=0;whiteSpace=wrap;html=1;align=left;" vertex="1" parent="1">
          <mxGeometry x="40" y="360" width="760" height="20" as="geometry" />
        </mxCell>
        <mxCell id="Ys_HVUx-mVdK4su9oQWS-23" value="Info" style="swimlane;fontStyle=0;childLayout=stackLayout;horizontal=1;startSize=30;horizontalStack=0;resizeParent=1;resizeParentMax=0;resizeLast=0;collapsible=1;marginBottom=0;whiteSpace=wrap;html=1;" vertex="1" parent="1">
          <mxGeometry x="80" y="120" width="200" height="120" as="geometry" />
        </mxCell>
        <mxCell id="Ys_HVUx-mVdK4su9oQWS-24" value="Name" style="text;strokeColor=none;fillColor=none;align=left;verticalAlign=middle;spacingLeft=4;spacingRight=4;overflow=hidden;points=[[0,0.5],[1,0.5]];portConstraint=eastwest;rotatable=0;whiteSpace=wrap;html=1;" vertex="1" parent="Ys_HVUx-mVdK4su9oQWS-23">
          <mxGeometry y="30" width="200" height="30" as="geometry" />
        </mxCell>
        <mxCell id="Ys_HVUx-mVdK4su9oQWS-25" value="Min. Grund" style="text;strokeColor=none;fillColor=none;align=left;verticalAlign=middle;spacingLeft=4;spacingRight=4;overflow=hidden;points=[[0,0.5],[1,0.5]];portConstraint=eastwest;rotatable=0;whiteSpace=wrap;html=1;" vertex="1" parent="Ys_HVUx-mVdK4su9oQWS-23">
          <mxGeometry y="60" width="200" height="30" as="geometry" />
        </mxCell>
        <mxCell id="Ys_HVUx-mVdK4su9oQWS-26" value="Min.Temperatur" style="text;strokeColor=none;fillColor=none;align=left;verticalAlign=middle;spacingLeft=4;spacingRight=4;overflow=hidden;points=[[0,0.5],[1,0.5]];portConstraint=eastwest;rotatable=0;whiteSpace=wrap;html=1;" vertex="1" parent="Ys_HVUx-mVdK4su9oQWS-23">
          <mxGeometry y="90" width="200" height="30" as="geometry" />
        </mxCell>
      </root>
    </mxGraphModel>
  </diagram>
</mxfile>
